<svg xmlns="http://www.w3.org/2000/svg" xmlns:xlink="http://www.w3.org/1999/xlink" width="144" height="164" viewBox="0 0 144 164">
    <defs>
        <radialGradient id="a" cy="0%" r="93.169%" fx="50%" fy="0%" gradientTransform="matrix(.18898 .96437 -.68883 .26457 .406 -.482)">
            <stop offset="0%" stop-color="#F7B236"/>
            <stop offset="100%" stop-color="#FCD966" stop-opacity="0"/>
        </radialGradient>
        <radialGradient id="b" cy="0%" r="109.524%" fx="50%" fy="0%" gradientTransform="matrix(0 .91304 -1 0 .5 -.457)">
            <stop offset="0%" stop-color="#F7B236"/>
            <stop offset="100%" stop-color="#FCD966" stop-opacity="0"/>
        </radialGradient>
        <radialGradient id="c" cy="0%" r="84.722%" fx="50%" fy="0%" gradientTransform="scale(.4752 1) rotate(87.926 .776 .286)">
            <stop offset="0%" stop-color="#F7B236"/>
            <stop offset="100%" stop-color="#FCD966" stop-opacity="0"/>
        </radialGradient>
        <circle id="e" cx="27" cy="27" r="27"/>
        <filter id="d" width="118.5%" height="118.5%" x="-9.3%" y="-7.4%" filterUnits="objectBoundingBox">
            <feOffset dy="1" in="SourceAlpha" result="shadowOffsetOuter1"/>
            <feGaussianBlur in="shadowOffsetOuter1" result="shadowBlurOuter1" stdDeviation=".5"/>
            <feColorMatrix in="shadowBlurOuter1" result="shadowMatrixOuter1" values="0 0 0 0 0.28627451 0 0 0 0 0.129411765 0 0 0 0 0.678431373 0 0 0 0.06 0"/>
            <feOffset dy="1" in="SourceAlpha" result="shadowOffsetOuter2"/>
            <feGaussianBlur in="shadowOffsetOuter2" result="shadowBlurOuter2" stdDeviation="1.5"/>
            <feColorMatrix in="shadowBlurOuter2" result="shadowMatrixOuter2" values="0 0 0 0 0.137254902 0 0 0 0 0.137254902 0 0 0 0 0.141176471 0 0 0 0.04 0"/>
            <feMerge>
                <feMergeNode in="shadowMatrixOuter1"/>
                <feMergeNode in="shadowMatrixOuter2"/>
            </feMerge>
        </filter>
        <circle id="g" cx="17.5" cy="17.5" r="17.5"/>
        <filter id="f" width="128.6%" height="128.6%" x="-14.3%" y="-11.4%" filterUnits="objectBoundingBox">
            <feOffset dy="1" in="SourceAlpha" result="shadowOffsetOuter1"/>
            <feGaussianBlur in="shadowOffsetOuter1" result="shadowBlurOuter1" stdDeviation=".5"/>
            <feColorMatrix in="shadowBlurOuter1" result="shadowMatrixOuter1" values="0 0 0 0 0.28627451 0 0 0 0 0.129411765 0 0 0 0 0.678431373 0 0 0 0.06 0"/>
            <feOffset dy="1" in="SourceAlpha" result="shadowOffsetOuter2"/>
            <feGaussianBlur in="shadowOffsetOuter2" result="shadowBlurOuter2" stdDeviation="1.5"/>
            <feColorMatrix in="shadowBlurOuter2" result="shadowMatrixOuter2" values="0 0 0 0 0.137254902 0 0 0 0 0.137254902 0 0 0 0 0.141176471 0 0 0 0.04 0"/>
            <feMerge>
                <feMergeNode in="shadowMatrixOuter1"/>
                <feMergeNode in="shadowMatrixOuter2"/>
            </feMerge>
        </filter>
        <circle id="i" cx="22" cy="22" r="22"/>
        <filter id="h" width="122.7%" height="122.7%" x="-11.4%" y="-9.1%" filterUnits="objectBoundingBox">
            <feOffset dy="1" in="SourceAlpha" result="shadowOffsetOuter1"/>
            <feGaussianBlur in="shadowOffsetOuter1" result="shadowBlurOuter1" stdDeviation=".5"/>
            <feColorMatrix in="shadowBlurOuter1" result="shadowMatrixOuter1" values="0 0 0 0 0.28627451 0 0 0 0 0.129411765 0 0 0 0 0.678431373 0 0 0 0.06 0"/>
            <feOffset dy="1" in="SourceAlpha" result="shadowOffsetOuter2"/>
            <feGaussianBlur in="shadowOffsetOuter2" result="shadowBlurOuter2" stdDeviation="1.5"/>
            <feColorMatrix in="shadowBlurOuter2" result="shadowMatrixOuter2" values="0 0 0 0 0.137254902 0 0 0 0 0.137254902 0 0 0 0 0.141176471 0 0 0 0.04 0"/>
            <feMerge>
                <feMergeNode in="shadowMatrixOuter1"/>
                <feMergeNode in="shadowMatrixOuter2"/>
            </feMerge>
        </filter>
        <circle id="k" cx="18.5" cy="18.5" r="18.5"/>
        <filter id="j" width="127%" height="127%" x="-13.5%" y="-10.8%" filterUnits="objectBoundingBox">
            <feOffset dy="1" in="SourceAlpha" result="shadowOffsetOuter1"/>
            <feGaussianBlur in="shadowOffsetOuter1" result="shadowBlurOuter1" stdDeviation=".5"/>
            <feColorMatrix in="shadowBlurOuter1" result="shadowMatrixOuter1" values="0 0 0 0 0.28627451 0 0 0 0 0.129411765 0 0 0 0 0.678431373 0 0 0 0.06 0"/>
            <feOffset dy="1" in="SourceAlpha" result="shadowOffsetOuter2"/>
            <feGaussianBlur in="shadowOffsetOuter2" result="shadowBlurOuter2" stdDeviation="1.5"/>
            <feColorMatrix in="shadowBlurOuter2" result="shadowMatrixOuter2" values="0 0 0 0 0.137254902 0 0 0 0 0.137254902 0 0 0 0 0.141176471 0 0 0 0.04 0"/>
            <feMerge>
                <feMergeNode in="shadowMatrixOuter1"/>
                <feMergeNode in="shadowMatrixOuter2"/>
            </feMerge>
        </filter>
        <circle id="m" cx="36.5" cy="36.5" r="36.5"/>
        <filter id="l" width="113.7%" height="113.7%" x="-6.8%" y="-5.5%" filterUnits="objectBoundingBox">
            <feOffset dy="1" in="SourceAlpha" result="shadowOffsetOuter1"/>
            <feGaussianBlur in="shadowOffsetOuter1" result="shadowBlurOuter1" stdDeviation=".5"/>
            <feColorMatrix in="shadowBlurOuter1" result="shadowMatrixOuter1" values="0 0 0 0 0.28627451 0 0 0 0 0.129411765 0 0 0 0 0.678431373 0 0 0 0.06 0"/>
            <feOffset dy="1" in="SourceAlpha" result="shadowOffsetOuter2"/>
            <feGaussianBlur in="shadowOffsetOuter2" result="shadowBlurOuter2" stdDeviation="1.5"/>
            <feColorMatrix in="shadowBlurOuter2" result="shadowMatrixOuter2" values="0 0 0 0 0.137254902 0 0 0 0 0.137254902 0 0 0 0 0.141176471 0 0 0 0.04 0"/>
            <feMerge>
                <feMergeNode in="shadowMatrixOuter1"/>
                <feMergeNode in="shadowMatrixOuter2"/>
            </feMerge>
        </filter>
        <linearGradient id="n" x1="50%" x2="50%" y1="-406.012%" y2="81.715%">
            <stop offset="0%" stop-color="#343945"/>
            <stop offset="100%" stop-color="#343945" stop-opacity="0"/>
        </linearGradient>
        <circle id="p" cx="20.5" cy="20.5" r="20.5"/>
        <filter id="o" width="124.4%" height="124.4%" x="-12.2%" y="-9.8%" filterUnits="objectBoundingBox">
            <feOffset dy="1" in="SourceAlpha" result="shadowOffsetOuter1"/>
            <feGaussianBlur in="shadowOffsetOuter1" result="shadowBlurOuter1" stdDeviation=".5"/>
            <feColorMatrix in="shadowBlurOuter1" result="shadowMatrixOuter1" values="0 0 0 0 0.28627451 0 0 0 0 0.129411765 0 0 0 0 0.678431373 0 0 0 0.06 0"/>
            <feOffset dy="1" in="SourceAlpha" result="shadowOffsetOuter2"/>
            <feGaussianBlur in="shadowOffsetOuter2" result="shadowBlurOuter2" stdDeviation="1.5"/>
            <feColorMatrix in="shadowBlurOuter2" result="shadowMatrixOuter2" values="0 0 0 0 0.137254902 0 0 0 0 0.137254902 0 0 0 0 0.141176471 0 0 0 0.04 0"/>
            <feMerge>
                <feMergeNode in="shadowMatrixOuter1"/>
                <feMergeNode in="shadowMatrixOuter2"/>
            </feMerge>
        </filter>
    </defs>
    <g fill="none" fill-rule="evenodd">
        <path fill="url(#a)" fill-rule="nonzero" d="M121.5 14L202 129H41z" transform="matrix(1 0 0 -1 -16 132)"/>
        <path fill="url(#b)" fill-rule="nonzero" d="M121.5 14L174 129H69z" transform="matrix(1 0 0 -1 -16 132)"/>
        <path fill="url(#c)" fill-rule="nonzero" d="M121 14l121 115H0z" transform="matrix(1 0 0 -1 -16 132)"/>
        <g transform="translate(3 1)">
            <use fill="#000" filter="url(#d)" xlink:href="#e"/>
            <use fill="#FFF" xlink:href="#e"/>
        </g>
        <path fill="#343945" d="M19.104 23.873l-1.499.888c-.28-.486-.547-.803-.8-.951-.265-.17-.606-.254-1.023-.254-.513 0-.939.145-1.277.436a1.352 1.352 0 0 0-.508 1.079c0 .597.444 1.078 1.333 1.443l1.22.5c.995.401 1.722.892 2.181 1.47.46.58.69 1.29.69 2.13 0 1.126-.375 2.056-1.126 2.791-.756.74-1.694 1.11-2.815 1.11-1.062 0-1.94-.314-2.633-.943-.682-.63-1.107-1.515-1.276-2.657l1.871-.412c.085.719.233 1.216.444 1.49.38.53.936.794 1.666.794.576 0 1.054-.193 1.435-.58.38-.385.57-.874.57-1.466 0-.238-.032-.456-.098-.655a1.66 1.66 0 0 0-.31-.547 2.472 2.472 0 0 0-.543-.468 5.233 5.233 0 0 0-.793-.416l-1.181-.492c-1.676-.708-2.514-1.744-2.514-3.108 0-.92.351-1.69 1.055-2.308.703-.624 1.578-.936 2.624-.936 1.412 0 2.514.688 3.307 2.062zm7.898 2.696h1.793v7.724h-1.793v-.809c-.734.688-1.525 1.031-2.37 1.031-1.069 0-1.951-.386-2.65-1.158-.692-.787-1.038-1.77-1.038-2.95 0-1.157.346-2.122 1.039-2.894.692-.772 1.56-1.158 2.6-1.158.9 0 1.706.37 2.42 1.11v-.896zm-4.234 3.839c0 .74.198 1.342.595 1.808.407.47.92.705 1.538.705.66 0 1.195-.227 1.602-.682.407-.47.61-1.068.61-1.792s-.203-1.321-.61-1.792c-.407-.46-.936-.69-1.586-.69-.613 0-1.126.233-1.539.698-.407.47-.61 1.052-.61 1.745zm13.972-3.839h1.793v7.724H36.74v-.809c-.734.688-1.525 1.031-2.37 1.031-1.068 0-1.951-.386-2.65-1.158-.692-.787-1.038-1.77-1.038-2.95 0-1.157.346-2.122 1.039-2.894.692-.772 1.56-1.158 2.6-1.158.9 0 1.706.37 2.42 1.11v-.896zm-4.234 3.839c0 .74.198 1.342.595 1.808.407.47.92.705 1.538.705.66 0 1.195-.227 1.602-.682.407-.47.61-1.068.61-1.792s-.203-1.321-.61-1.792c-.407-.46-.936-.69-1.586-.69-.613 0-1.126.233-1.539.698-.407.47-.61 1.052-.61 1.745zm15.543-6.535l-1.5.888c-.28-.486-.546-.803-.8-.951-.264-.17-.605-.254-1.023-.254-.513 0-.938.145-1.277.436a1.352 1.352 0 0 0-.507 1.079c0 .597.444 1.078 1.332 1.443l1.221.5c.994.401 1.721.892 2.18 1.47.46.58.69 1.29.69 2.13 0 1.126-.375 2.056-1.125 2.791-.756.74-1.695 1.11-2.815 1.11-1.063 0-1.94-.314-2.633-.943-.682-.63-1.108-1.515-1.277-2.657l1.872-.412c.084.719.232 1.216.444 1.49.38.53.935.794 1.665.794.576 0 1.055-.193 1.435-.58.381-.385.571-.874.571-1.466 0-.238-.033-.456-.099-.655a1.66 1.66 0 0 0-.31-.547 2.472 2.472 0 0 0-.542-.468 5.233 5.233 0 0 0-.793-.416l-1.182-.492c-1.676-.708-2.514-1.744-2.514-3.108 0-.92.352-1.69 1.055-2.308.703-.624 1.578-.936 2.625-.936 1.411 0 2.514.688 3.307 2.062z"/>
        <g transform="translate(83 24)">
            <use fill="#000" filter="url(#f)" xlink:href="#g"/>
            <use fill="#FFF" xlink:href="#g"/>
        </g>
        <path fill="#343945" d="M93.933 38.962h1.97a6.27 6.27 0 0 0 .183-.733h-3.051v2.867c-.039 1.99-.357 3.592-.956 4.799l-.695-.618c.463-1.004.705-2.404.724-4.18V37.33h7.975v.898h-3.09a8.139 8.139 0 0 1-.193.733h2.617v3.843h-2.172v2.201c0 .58-.31.88-.908.88h-.975l-.203-.899c.3.039.589.058.86.058.202 0 .308-.087.308-.26v-1.98h-2.394v-3.843zm4.596 3.013v-.715H94.82v.715h3.708zm-3.708-1.497h3.708v-.685H94.82v.685zm-.26 2.626l.8.387a9.135 9.135 0 0 1-1.515 2.153l-.763-.541a7.786 7.786 0 0 0 1.477-1.999zm4.151-.01c.637.783 1.14 1.468 1.487 2.057l-.763.522c-.357-.638-.84-1.342-1.458-2.115l.734-.463zm4.403-3.504c-.386.869-.869 1.593-1.458 2.172l-.599-.762c.87-.918 1.458-2.154 1.767-3.708l.937.164c-.097.444-.203.86-.319 1.246h1.796V37.08h.917v1.622h3.1v.888h-3.1v1.999h2.907v.888h-2.907v2.201h3.718v.908h-8.565v-.908h3.93v-2.201h-2.761v-.888h2.761v-2h-2.124z"/>
        <g transform="translate(53 61)">
            <use fill="#000" filter="url(#h)" xlink:href="#i"/>
            <use fill="#FFF" xlink:href="#i"/>
        </g>
        <path fill="#343945" d="M71.594 86.084h-4.17L66.34 88.45h-1.583l4.819-10.35 4.648 10.35h-1.608l-1.022-2.366zm-.6-1.381l-1.444-3.311-1.513 3.311h2.958zm5.917-.208v3.955h-1.47V78.71h1.666c.815 0 1.431.057 1.848.17.42.114.79.328 1.11.644.559.546.839 1.236.839 2.068 0 .892-.299 1.598-.896 2.12-.597.521-1.402.782-2.416.782h-.68zm0-1.363h.549c1.35 0 2.025-.519 2.025-1.557 0-1.005-.696-1.508-2.088-1.508h-.486v3.065zm6.976-4.421v9.739h-1.47V78.71h1.47z"/>
        <g transform="translate(64 1)">
            <use fill="#000" filter="url(#j)" xlink:href="#k"/>
            <use fill="#FFF" xlink:href="#k"/>
        </g>
        <path fill="#343945" d="M73.958 19.257h2.908v-2.638h1.018v6.744h-1.018v-3.15h-2.908v3.15H72.94v-6.744h1.018v2.638zm9.229 2.21h-3.05c.027.35.14.628.342.834.2.204.458.306.773.306.244 0 .447-.058.607-.175.157-.116.336-.332.537-.646l.83.463a3.301 3.301 0 0 1-.406.561 2.16 2.16 0 0 1-.459.384c-.163.1-.34.174-.528.221-.19.047-.395.07-.616.07-.635 0-1.145-.204-1.529-.612-.384-.41-.577-.955-.577-1.633 0-.673.187-1.217.56-1.634.375-.41.873-.615 1.493-.615.626 0 1.121.199 1.485.598.361.396.542.945.542 1.647l-.004.231zm-1.01-.804c-.136-.524-.467-.786-.99-.786-.12 0-.232.018-.337.055a.962.962 0 0 0-.507.404 1.147 1.147 0 0 0-.14.327h1.975zm3.067-4.677v7.377h-.983v-7.377h.983zm1.245 3.122h.982v.394c.19-.198.351-.332.485-.402.143-.073.322-.11.537-.11.48 0 .86.21 1.14.63.309-.42.727-.63 1.254-.63.958 0 1.437.581 1.437 1.743v2.63h-.987V21c0-.408-.05-.696-.149-.865-.102-.172-.27-.258-.502-.258-.27 0-.468.102-.592.306-.124.204-.186.531-.186.983v2.197h-.987v-2.35c0-.757-.218-1.136-.655-1.136-.276 0-.478.104-.605.31-.126.207-.19.533-.19.979v2.197h-.982v-4.255z"/>
        <g>
            <g transform="translate(110 -11)">
                <use fill="#000" filter="url(#l)" xlink:href="#m"/>
                <use fill="#FFF" xlink:href="#m"/>
            </g>
            <path fill="#343945" d="M126.108 21.514v1.75c-.853-.715-1.736-1.072-2.649-1.072-1.005 0-1.852.361-2.54 1.084-.694.718-1.04 1.597-1.04 2.636 0 1.026.346 1.892 1.04 2.598.692.705 1.541 1.058 2.547 1.058.52 0 .96-.084 1.324-.253a3.82 3.82 0 0 0 .63-.342c.218-.144.447-.317.688-.52v1.78a5.333 5.333 0 0 1-2.661.717c-1.399 0-2.592-.488-3.58-1.464-.985-.984-1.477-2.172-1.477-3.561 0-1.247.412-2.358 1.236-3.334 1.014-1.195 2.325-1.793 3.935-1.793.878 0 1.728.239 2.547.716zm1.3 6.128c0-.892.318-1.65.956-2.275.638-.625 1.415-.938 2.332-.938.921 0 1.702.315 2.345.944.633.63.95 1.403.95 2.32 0 .925-.319 1.7-.957 2.325-.642.621-1.43.932-2.363.932-.926 0-1.7-.317-2.326-.95-.625-.626-.938-1.412-.938-2.358zm1.457.025c0 .617.164 1.105.494 1.464.338.363.784.545 1.337.545.558 0 1.003-.18 1.337-.539.334-.359.5-.838.5-1.438s-.166-1.08-.5-1.439c-.338-.363-.784-.545-1.337-.545-.545 0-.986.182-1.324.545-.338.364-.507.833-.507 1.407zm6.634-3.067h1.432v.57c.499-.494 1.06-.74 1.686-.74.718 0 1.278.225 1.68.677.346.385.519 1.012.519 1.882v3.783h-1.432v-3.447c0-.608-.085-1.029-.254-1.261-.164-.237-.464-.355-.9-.355-.473 0-.809.156-1.007.469-.194.308-.292.847-.292 1.616v2.978H135.5V24.6zm8.587 1.33v4.842h-1.426v-4.841h-.608V24.6h.608v-2.263h1.426V24.6h1.109v1.33h-1.11zm6.628-1.33h1.432v6.172h-1.432v-.646c-.587.55-1.219.824-1.895.824-.853 0-1.559-.309-2.116-.926-.554-.629-.83-1.415-.83-2.357 0-.925.276-1.696.83-2.313a2.676 2.676 0 0 1 2.078-.925c.718 0 1.363.296 1.933.887V24.6zm-3.384 3.067c0 .592.159 1.073.475 1.445.326.376.735.564 1.23.564.528 0 .954-.182 1.28-.545.325-.376.488-.853.488-1.432s-.163-1.056-.488-1.432c-.326-.368-.748-.552-1.268-.552-.49 0-.9.186-1.229.558-.325.376-.488.84-.488 1.394zm8.042-3.067v6.172h-1.426V24.6h1.426zm-1.642-2.566c0-.25.091-.465.273-.647a.89.89 0 0 1 .652-.272c.258 0 .478.09.66.272a.877.877 0 0 1 .272.653c0 .258-.09.477-.273.66a.877.877 0 0 1-.652.272.898.898 0 0 1-.66-.273.905.905 0 0 1-.272-.665zm3.448 2.566h1.432v.57c.498-.494 1.06-.74 1.685-.74.718 0 1.278.225 1.68.677.346.385.52 1.012.52 1.882v3.783h-1.433v-3.447c0-.608-.085-1.029-.253-1.261-.165-.237-.465-.355-.9-.355-.473 0-.81.156-1.008.469-.194.308-.291.847-.291 1.616v2.978h-1.432V24.6zm12.736 3.422h-4.423c.038.507.203.91.495 1.21.291.296.665.444 1.121.444.355 0 .649-.085.881-.254.228-.168.488-.481.78-.937l1.204.671a4.79 4.79 0 0 1-.59.815 3.133 3.133 0 0 1-.665.557 2.668 2.668 0 0 1-.767.32 3.733 3.733 0 0 1-.893.102c-.921 0-1.66-.296-2.218-.887-.558-.596-.837-1.386-.837-2.37 0-.976.27-1.766.811-2.37.545-.596 1.268-.894 2.168-.894.908 0 1.626.29 2.154.868.524.575.786 1.371.786 2.39l-.007.335zm-1.463-1.166c-.199-.76-.678-1.14-1.439-1.14-.173 0-.336.026-.488.079a1.396 1.396 0 0 0-.735.586c-.088.14-.156.298-.203.475h2.865zm3.022-2.256h1.426v.551c.262-.274.494-.462.697-.564.207-.105.452-.158.735-.158.376 0 .77.123 1.179.368l-.653 1.305c-.27-.194-.534-.291-.792-.291-.777 0-1.166.587-1.166 1.761v3.2h-1.426V24.6z"/>
        </g>
        <path fill="url(#n)" fill-rule="nonzero" d="M121 131l121 54H0z" transform="translate(-16 -11)"/>
        <g>
            <g transform="translate(101 77)">
                <use fill="#000" filter="url(#o)" xlink:href="#p"/>
                <use fill="#FFF" xlink:href="#p"/>
            </g>
            <path fill="#343945" d="M110.052 96.262l-.674.4c-.126-.219-.247-.362-.36-.428a.84.84 0 0 0-.46-.114.85.85 0 0 0-.575.196.608.608 0 0 0-.229.485c0 .269.2.485.6.65l.55.224c.446.181.773.402.98.662.207.26.31.58.31.958 0 .507-.168.925-.506 1.256-.34.333-.762.5-1.267.5-.478 0-.872-.142-1.184-.425-.307-.283-.498-.682-.574-1.195l.842-.186c.038.324.104.547.2.67.17.239.42.358.749.358a.87.87 0 0 0 .645-.26.901.901 0 0 0 .257-.66.926.926 0 0 0-.044-.295.747.747 0 0 0-.14-.246 1.112 1.112 0 0 0-.244-.21 2.354 2.354 0 0 0-.357-.188l-.531-.221c-.754-.32-1.131-.785-1.131-1.399 0-.414.158-.76.474-1.038.317-.28.71-.421 1.181-.421.635 0 1.131.309 1.488.927zm4.157 3.14h-2.49c.02.285.113.513.277.682.165.166.375.25.632.25.2 0 .365-.048.496-.143.128-.096.275-.272.439-.528l.678.378a2.697 2.697 0 0 1-.332.458 1.764 1.764 0 0 1-.375.314 1.502 1.502 0 0 1-.431.18 2.102 2.102 0 0 1-.504.057c-.518 0-.934-.166-1.248-.5-.314-.334-.471-.78-.471-1.333 0-.55.152-.995.456-1.335.307-.335.714-.503 1.22-.503.512 0 .916.163 1.214.489.295.323.442.772.442 1.345l-.003.19zm-.825-.656c-.111-.429-.381-.643-.81-.643a.786.786 0 0 0-.689.375.937.937 0 0 0-.113.268h1.612zm1.702-1.27h.803v.31c.147-.155.278-.26.392-.318a.9.9 0 0 1 .414-.089c.212 0 .433.07.664.207l-.368.735a.766.766 0 0 0-.446-.164c-.437 0-.656.33-.656.992v1.801h-.803v-3.475zm3.165 0l.899 1.951.896-1.952h.902l-1.805 3.715-1.791-3.715h.899zm6.404 1.926h-2.49c.021.285.114.513.278.682.164.166.375.25.632.25.2 0 .365-.048.496-.143.128-.096.274-.272.438-.528l.678.378a2.697 2.697 0 0 1-.332.458 1.764 1.764 0 0 1-.374.314 1.502 1.502 0 0 1-.432.18 2.102 2.102 0 0 1-.503.057c-.518 0-.935-.166-1.249-.5-.314-.334-.47-.78-.47-1.333 0-.55.152-.995.456-1.335.307-.335.714-.503 1.22-.503.512 0 .916.163 1.213.489.295.323.443.772.443 1.345l-.004.19zm-.824-.656c-.112-.429-.382-.643-.81-.643a.786.786 0 0 0-.689.375.937.937 0 0 0-.114.268h1.613zm2.505-3.822v6.026h-.803v-6.026h.803zm4.181 4.478h-2.49c.021.285.114.513.278.682.164.166.375.25.632.25.2 0 .365-.048.495-.143.129-.096.275-.272.44-.528l.677.378a2.697 2.697 0 0 1-.332.458 1.764 1.764 0 0 1-.374.314 1.502 1.502 0 0 1-.432.18 2.102 2.102 0 0 1-.503.057c-.519 0-.935-.166-1.249-.5-.314-.334-.47-.78-.47-1.333 0-.55.152-.995.456-1.335.307-.335.714-.503 1.22-.503.512 0 .916.163 1.213.489.295.323.443.772.443 1.345l-.004.19zm-.824-.656c-.112-.429-.382-.643-.81-.643a.786.786 0 0 0-.689.375.937.937 0 0 0-.114.268h1.613zm3.721-.678l-.663.353c-.105-.214-.235-.321-.39-.321a.268.268 0 0 0-.188.073.245.245 0 0 0-.079.187c0 .133.155.265.464.396.426.183.712.352.86.507.147.155.221.363.221.624 0 .336-.124.616-.371.842-.24.214-.53.321-.87.321-.583 0-.996-.284-1.239-.852l.685-.318c.095.167.168.272.218.318.098.09.214.135.35.135.27 0 .406-.123.406-.37 0-.144-.104-.277-.314-.4-.08-.04-.161-.08-.242-.118a22.17 22.17 0 0 1-.246-.118c-.233-.114-.398-.228-.493-.342a.844.844 0 0 1-.182-.56c0-.303.104-.552.31-.75.212-.197.47-.296.771-.296.445 0 .776.23.992.689zm2.965 0l-.664.353c-.104-.214-.234-.321-.388-.321a.268.268 0 0 0-.19.073.245.245 0 0 0-.078.187c0 .133.155.265.464.396.426.183.712.352.86.507.147.155.22.363.22.624 0 .336-.123.616-.37.842-.24.214-.53.321-.87.321-.584 0-.996-.284-1.239-.852l.685-.318c.095.167.168.272.218.318.097.09.214.135.35.135.27 0 .406-.123.406-.37 0-.144-.104-.277-.314-.4-.08-.04-.161-.08-.242-.118a22.17 22.17 0 0 1-.247-.118c-.233-.114-.397-.228-.492-.342a.844.844 0 0 1-.182-.56c0-.303.104-.552.31-.75.212-.197.47-.296.771-.296.445 0 .776.23.992.689z"/>
        </g>
    </g>
</svg>
