<svg xmlns="http://www.w3.org/2000/svg" width="284" height="40" viewBox="0 0 284 40">
    <g fill="none" fill-rule="evenodd">
        <path fill="#D5DAE5" d="M268.009 14.847L277.275.645H284L271.371 20 284 39.355h-6.725l-9.266-14.202-9.266 14.202h-6.725L264.647 20 252.018.645h6.725l9.266 14.202zm-43.068 9.012c-.175.008-.35.012-.527.012h-7.576v15.484h-6.397V.645H224.414c6.414 0 11.613 5.2 11.613 11.613 0 4.149-2.176 7.79-5.449 9.844l9.197 17.317h-6.57l-8.264-15.56zM197.01.647h10.673v6.397h-10.673v32.31h-6.396V7.045H179.94V.647h10.673l6.396-.002zm19.829 6.45v10.967h7.31a5.484 5.484 0 1 0 0-10.967h-7.31zM241.144.645h6.397v38.71h-6.397V.645zM17.27 35.484c7.323 0 13.433-6.847 13.433-15.484S24.593 4.516 17.27 4.516C9.947 4.516 3.838 11.363 3.838 20s6.11 15.484 13.432 15.484zm0 3.87C7.732 39.355 0 30.69 0 20 0 9.31 7.732.645 17.27.645S34.54 9.311 34.54 20c0 10.69-7.732 19.355-17.27 19.355zM44.775.645h10.874c5.652 0 10.234 4.622 10.234 10.323v2.58c0 5.701-4.582 10.323-10.234 10.323H44.775v15.484h-3.838V.645h3.838zm0 3.871V20h10.874c3.532 0 6.396-2.888 6.396-6.452v-2.58c0-3.563-2.864-6.452-6.396-6.452H44.775zM147.117.645h8.955c5.652 0 10.234 4.622 10.234 10.323v3.226c0 5.7-4.582 10.322-10.234 10.322h-8.955v14.839h-6.396V.645h6.396zm0 6.452v10.968h8.955c2.12 0 3.838-1.734 3.838-3.871v-3.226c0-2.138-1.718-3.871-3.838-3.871h-8.955zM95.306 4.516H75.477V17.42h19.83v3.871h-19.83v14.194h19.83v3.87H71.64V.646H95.307zM128.568 13.379V.645h3.837v38.71h-3.837V17.724L106.82 6.547v32.808h-3.838V.645h3.838v1.557zM170.144.645h6.397v25.807l-6.397-3.226z"/>
        <path fill="#FCDF8C" d="M176.54 39.355h-6.396v-9.032l6.397 3.064z"/>
    </g>
</svg>
