<?xml version="1.0" encoding="UTF-8"?>
<svg width="16px" height="16px" viewBox="0 0 16 16" version="1.1" xmlns="http://www.w3.org/2000/svg"
     xmlns:xlink="http://www.w3.org/1999/xlink">
    <!-- Generator: Sketch 52.2 (67145) - http://www.bohemiancoding.com/sketch -->
    <title>Rectangle</title>
    <desc>Created with Sketch.</desc>
    <g id="Navigation" stroke="none" stroke-width="1" fill="none" fill-rule="evenodd">
        <g id="Admin-Navigation---我的工作台" transform="translate(-25.000000, -24.000000)">
            <rect id="Rectangle" fill="transparent" fill-rule="nonzero" x="0" y="0" width="64" height="64"></rect>
            <polygon id="Rectangle" fill="transparent" fill-rule="nonzero" points="0 0 64 0 64 900 0 900"></polygon>
            <rect id="Rectangle" fill-rule="nonzero" x="25" y="24" width="16" height="16"></rect>
            <g id="logo-new" transform="translate(25.000000, 24.060000)">
                <g id="Group">
                    <path d="M3.24886005,7.29741333 L6.81243645,7.29741333 C7.14426097,7.29741333 7.43390666,7.23501333 7.68270831,7.11101333 C7.93150996,6.98701333 8.13519629,6.81794667 8.2937673,6.60408 C8.45260526,6.39021333 8.57006527,6.14568 8.64614732,5.86914667 C8.72196241,5.59341333 8.76013691,5.31048 8.76013691,5.02061333 C8.76013691,4.71741333 8.72196241,4.42754667 8.64614732,4.15154667 C8.57006527,3.87554667 8.45260526,3.63421333 8.2937673,3.42728 C8.13519629,3.22034667 7.93150996,3.05448 7.68270831,2.93048 C7.43390666,2.80594667 7.14426097,2.74408 6.81243645,2.74408 L3.24886005,2.74408 L3.24886005,7.29741333 Z M6.81243645,0.03288 C7.54469281,0.03288 8.19018893,0.15688 8.74972568,0.405413333 C9.30899549,0.653946667 9.7753651,0.998746667 10.1483006,1.44008 C10.5212361,1.88194667 10.803941,2.39928 10.9974831,2.99234667 C11.1912921,3.58568 11.2879296,4.22061333 11.2879296,4.89661333 C11.2879296,5.55874667 11.197699,6.19021333 11.0185725,6.79021333 C10.8389121,7.39048 10.5626141,7.91474667 10.1896786,8.36328 C9.81701001,8.81154667 9.3506404,9.17048 8.79110364,9.43954667 C8.23156689,9.70834667 7.57218913,9.84301333 6.81243645,9.84301333 L3.24886005,9.84301333 L3.24886005,15.8795467 L0.535,15.8795467 L0.535,0.03288 L6.81243645,0.03288 Z" id="Fill-1" fill="#5628B4"></path>
                    <polygon id="Fill-37" fill="#5628B4" points="12.755 9.30386667 12.755 0.0329333333 15.46886 0.0329333333 15.46886 10.6366667"></polygon>
                    <polygon id="Fill-162" fill="#F7B236" points="15.46886 13.4177067 15.46886 15.8795733 12.755 15.87904 12.755 12.08544"></polygon>
                </g>
            </g>
        </g>
    </g>
</svg>
