<?xml version="1.0" encoding="UTF-8"?>
<svg width="144px" height="20px" viewBox="0 0 144 20" version="1.1" xmlns="http://www.w3.org/2000/svg" xmlns:xlink="http://www.w3.org/1999/xlink">
    <!-- Generator: Sketch 50.2 (55047) - http://www.bohemiancoding.com/sketch -->
    <title>Group</title>
    <desc>Created with Sketch.</desc>
    <defs></defs>
    <g id="Symbols" stroke="none" stroke-width="1" fill="none" fill-rule="evenodd">
        <g id="Navigation-/-Homepage" transform="translate(-156.000000, -14.000000)">
            <g id="Group" transform="translate(156.000000, 14.000000)">
                <path d="M135.891892,7.4233243 L140.590207,0.322580645 L144,0.322580645 L137.596789,10 L144,19.6774194 L140.590207,19.6774194 L135.891892,12.5766757 L131.193577,19.6774194 L127.783784,19.6774194 L134.186995,10 L127.783784,0.322580645 L131.193577,0.322580645 L135.891892,7.4233243 Z M114.057809,11.9354741 C114.054278,11.9354806 114.050747,11.9354839 114.047215,11.9354839 L109.945946,11.9354839 L109.945946,19.6774194 L106.702703,19.6774194 L106.702703,0.322580645 L109.945946,0.322580645 L114.047215,0.322580645 C117.155728,0.322580645 119.675676,2.8425282 119.675676,5.95104105 L119.675676,6.30702347 C119.675676,8.35175904 118.585339,10.1418329 116.954362,11.1275502 L121.57619,19.7095773 L118.244532,19.7095773 L114.057809,11.9354741 Z M99.8918919,3.54444312 L99.8918919,19.6774194 L96.6486486,19.6774194 L96.6486486,3.54444312 L91.3347864,3.54444312 L91.3347864,0.301199874 L105.205754,0.301199874 L105.205754,3.54444312 L99.8918919,3.54444312 Z M109.945946,3.54853672 L109.945946,9.03210844 L113.690647,9.03210844 C115.204893,9.03210844 116.432432,7.8045691 116.432432,6.29032258 C116.432432,4.77607606 115.204893,3.54853672 113.690647,3.54853672 L109.945946,3.54853672 Z M122.27027,0.322580645 L125.513514,0.322580645 L125.513514,19.6774194 L122.27027,19.6774194 L122.27027,0.322580645 Z" id="Combined-Shape" fill="#5628B4"></path>
                <path d="M8.75675676,17.7419355 C12.4698775,17.7419355 15.5675676,14.3185624 15.5675676,10 C15.5675676,5.68143763 12.4698775,2.25806452 8.75675676,2.25806452 C5.043636,2.25806452 1.94594595,5.68143763 1.94594595,10 C1.94594595,14.3185624 5.043636,17.7419355 8.75675676,17.7419355 Z M8.75675676,19.6774194 C3.92053354,19.6774194 0,15.3446911 0,10 C0,4.65530887 3.92053354,0.322580645 8.75675676,0.322580645 C13.59298,0.322580645 17.5135135,4.65530887 17.5135135,10 C17.5135135,15.3446911 13.59298,19.6774194 8.75675676,19.6774194 Z" id="Oval-2" fill="#5628B4" fill-rule="nonzero"></path>
                <path d="M22.7027027,0.322580645 L28.2162162,0.322580645 C31.0821263,0.322580645 33.4054054,2.63336903 33.4054054,5.48387097 L33.4054054,6.77419355 C33.4054054,9.62469548 31.0821263,11.9354839 28.2162162,11.9354839 L22.7027027,11.9354839 L22.7027027,19.6774194 L20.7567568,19.6774194 L20.7567568,0.322580645 L22.7027027,0.322580645 Z M22.7027027,2.25806452 L22.7027027,10 L28.2162162,10 C30.00741,10 31.4594595,8.55575726 31.4594595,6.77419355 L31.4594595,5.48387097 C31.4594595,3.70230726 30.00741,2.25806452 28.2162162,2.25806452 L22.7027027,2.25806452 Z" id="Combined-Shape" fill="#5628B4"></path>
                <path d="M74.5945946,0.322580645 L79.1351351,0.322580645 C82.0010452,0.322580645 84.3243243,2.63336903 84.3243243,5.48387097 L84.3243243,7.09677419 C84.3243243,9.94727613 82.0010452,12.2580645 79.1351351,12.2580645 L74.5945946,12.2580645 L74.5945946,19.6774194 L71.3513514,19.6774194 L71.3513514,0.322580645 L74.5945946,0.322580645 Z M74.5945946,3.5483871 L74.5945946,9.03225806 L79.1351351,9.03225806 C80.2098514,9.03225806 81.0810811,8.16571242 81.0810811,7.09677419 L81.0810811,5.48387097 C81.0810811,4.41493274 80.2098514,3.5483871 79.1351351,3.5483871 L74.5945946,3.5483871 Z" id="Combined-Shape" fill="#5628B4"></path>
                <polygon id="Combined-Shape" fill="#5628B4" points="48.3243243 2.25806452 38.2702703 2.25806452 38.2702703 8.70967742 48.3243243 8.70967742 48.3243243 10.6451613 38.2702703 10.6451613 38.2702703 17.7419355 48.3243243 17.7419355 48.3243243 19.6774194 36.3243243 19.6774194 36.3243243 0.322580645 38.2702703 0.322580645 48.3243243 0.322580645"></polygon>
                <polygon id="Combined-Shape" fill="#5628B4" points="65.1891892 6.68950686 65.1891892 0.322580645 67.1351351 0.322580645 67.1351351 19.6774194 65.1891892 19.6774194 65.1891892 8.86175119 54.1621622 3.27340755 54.1621622 19.6774194 52.2162162 19.6774194 52.2162162 0.322580645 54.1621622 0.322580645 54.1621622 1.10116322"></polygon>
                <polygon id="Rectangle-4-Copy-8" fill="#5628B4" points="86.2702703 0.322580645 89.5135135 0.322580645 89.5135135 13.2258065 86.2702703 11.6129032"></polygon>
                <polygon id="Rectangle-4-Copy-15" fill="#F7B236" transform="translate(87.891892, 17.419355) rotate(-180.000000) translate(-87.891892, -17.419355) " points="86.2702703 15.1612903 89.5135135 15.1612903 89.5135135 19.6774194 86.2702703 18.1451613"></polygon>
            </g>
        </g>
    </g>
</svg>