<svg xmlns="http://www.w3.org/2000/svg" width="16" height="16" viewBox="0 0 16 16">
    <g fill="none" fill-rule="evenodd">
        <path fill="#FFF" d="M3.249 7.297h3.563c.332 0 .622-.062.87-.186.25-.124.453-.293.612-.507.159-.214.276-.458.352-.735a3.268 3.268 0 0 0 0-1.718 2.085 2.085 0 0 0-.352-.724 1.727 1.727 0 0 0-.611-.497 1.92 1.92 0 0 0-.87-.186H3.248v4.553zM6.812.033c.733 0 1.378.124 1.938.372.559.249 1.025.594 1.398 1.035.373.442.656.96.85 1.552.193.594.29 1.229.29 1.905 0 .662-.09 1.293-.27 1.893-.18.6-.455 1.125-.828 1.573A4.102 4.102 0 0 1 8.79 9.44c-.56.268-1.219.403-1.979.403H3.25v6.037H.535V.033h6.277zM12.755 9.304V.033h2.714v10.604z"/>
        <path fill="#F7B236" d="M15.469 13.418v2.462l-2.714-.001v-3.794z"/>
    </g>
</svg>
