<svg xmlns="http://www.w3.org/2000/svg" xmlns:xlink="http://www.w3.org/1999/xlink" width="502" height="437" viewBox="0 0 502 437">
    <defs>
        <radialGradient id="a" cy="0%" r="93.208%" fx="50%" fy="0%" gradientTransform="matrix(.1889 .96396 -.68441 .26606 .406 -.482)">
            <stop offset="0%" stop-color="#F7B236"/>
            <stop offset="100%" stop-color="#FCD966" stop-opacity="0"/>
        </radialGradient>
        <radialGradient id="b" cy="0%" r="109.231%" fx="50%" fy="0%" gradientTransform="matrix(0 .9155 -1 0 .5 -.458)">
            <stop offset="0%" stop-color="#F7B236"/>
            <stop offset="100%" stop-color="#FCD966" stop-opacity="0"/>
        </radialGradient>
        <radialGradient id="c" cy="0%" r="84.722%" fx="50%" fy="0%" gradientTransform="scale(.47333 1) rotate(87.917 .778 .288)">
            <stop offset="0%" stop-color="#F7B236"/>
            <stop offset="100%" stop-color="#FCD966" stop-opacity="0"/>
        </radialGradient>
        <circle id="e" cx="66.5" cy="66.5" r="66.5"/>
        <filter id="d" width="121.1%" height="121.1%" x="-10.5%" y="-7.5%" filterUnits="objectBoundingBox">
            <feOffset dy="1" in="SourceAlpha" result="shadowOffsetOuter1"/>
            <feGaussianBlur in="shadowOffsetOuter1" result="shadowBlurOuter1" stdDeviation="2"/>
            <feColorMatrix in="shadowBlurOuter1" result="shadowMatrixOuter1" values="0 0 0 0 0.28627451 0 0 0 0 0.129411765 0 0 0 0 0.678431373 0 0 0 0.06 0"/>
            <feOffset dy="4" in="SourceAlpha" result="shadowOffsetOuter2"/>
            <feGaussianBlur in="shadowOffsetOuter2" result="shadowBlurOuter2" stdDeviation="4"/>
            <feColorMatrix in="shadowBlurOuter2" result="shadowMatrixOuter2" values="0 0 0 0 0.137254902 0 0 0 0 0.137254902 0 0 0 0 0.141176471 0 0 0 0.04 0"/>
            <feMerge>
                <feMergeNode in="shadowMatrixOuter1"/>
                <feMergeNode in="shadowMatrixOuter2"/>
            </feMerge>
        </filter>
        <circle id="g" cx="43.5" cy="43.5" r="43.5"/>
        <filter id="f" width="132.2%" height="132.2%" x="-16.1%" y="-11.5%" filterUnits="objectBoundingBox">
            <feOffset dy="1" in="SourceAlpha" result="shadowOffsetOuter1"/>
            <feGaussianBlur in="shadowOffsetOuter1" result="shadowBlurOuter1" stdDeviation="2"/>
            <feColorMatrix in="shadowBlurOuter1" result="shadowMatrixOuter1" values="0 0 0 0 0.28627451 0 0 0 0 0.129411765 0 0 0 0 0.678431373 0 0 0 0.06 0"/>
            <feOffset dy="4" in="SourceAlpha" result="shadowOffsetOuter2"/>
            <feGaussianBlur in="shadowOffsetOuter2" result="shadowBlurOuter2" stdDeviation="4"/>
            <feColorMatrix in="shadowBlurOuter2" result="shadowMatrixOuter2" values="0 0 0 0 0.137254902 0 0 0 0 0.137254902 0 0 0 0 0.141176471 0 0 0 0.04 0"/>
            <feMerge>
                <feMergeNode in="shadowMatrixOuter1"/>
                <feMergeNode in="shadowMatrixOuter2"/>
            </feMerge>
        </filter>
        <circle id="i" cx="54.5" cy="54.5" r="54.5"/>
        <filter id="h" width="125.7%" height="125.7%" x="-12.8%" y="-9.2%" filterUnits="objectBoundingBox">
            <feOffset dy="1" in="SourceAlpha" result="shadowOffsetOuter1"/>
            <feGaussianBlur in="shadowOffsetOuter1" result="shadowBlurOuter1" stdDeviation="2"/>
            <feColorMatrix in="shadowBlurOuter1" result="shadowMatrixOuter1" values="0 0 0 0 0.28627451 0 0 0 0 0.129411765 0 0 0 0 0.678431373 0 0 0 0.06 0"/>
            <feOffset dy="4" in="SourceAlpha" result="shadowOffsetOuter2"/>
            <feGaussianBlur in="shadowOffsetOuter2" result="shadowBlurOuter2" stdDeviation="4"/>
            <feColorMatrix in="shadowBlurOuter2" result="shadowMatrixOuter2" values="0 0 0 0 0.137254902 0 0 0 0 0.137254902 0 0 0 0 0.141176471 0 0 0 0.04 0"/>
            <feMerge>
                <feMergeNode in="shadowMatrixOuter1"/>
                <feMergeNode in="shadowMatrixOuter2"/>
            </feMerge>
        </filter>
        <circle id="k" cx="37" cy="37" r="37"/>
        <filter id="j" width="137.8%" height="137.8%" x="-18.9%" y="-13.5%" filterUnits="objectBoundingBox">
            <feOffset dy="1" in="SourceAlpha" result="shadowOffsetOuter1"/>
            <feGaussianBlur in="shadowOffsetOuter1" result="shadowBlurOuter1" stdDeviation="2"/>
            <feColorMatrix in="shadowBlurOuter1" result="shadowMatrixOuter1" values="0 0 0 0 0.28627451 0 0 0 0 0.129411765 0 0 0 0 0.678431373 0 0 0 0.06 0"/>
            <feOffset dy="4" in="SourceAlpha" result="shadowOffsetOuter2"/>
            <feGaussianBlur in="shadowOffsetOuter2" result="shadowBlurOuter2" stdDeviation="4"/>
            <feColorMatrix in="shadowBlurOuter2" result="shadowMatrixOuter2" values="0 0 0 0 0.137254902 0 0 0 0 0.137254902 0 0 0 0 0.141176471 0 0 0 0.04 0"/>
            <feMerge>
                <feMergeNode in="shadowMatrixOuter1"/>
                <feMergeNode in="shadowMatrixOuter2"/>
            </feMerge>
        </filter>
        <circle id="m" cx="45.5" cy="45.5" r="45.5"/>
        <filter id="l" width="130.8%" height="130.8%" x="-15.4%" y="-11%" filterUnits="objectBoundingBox">
            <feOffset dy="1" in="SourceAlpha" result="shadowOffsetOuter1"/>
            <feGaussianBlur in="shadowOffsetOuter1" result="shadowBlurOuter1" stdDeviation="2"/>
            <feColorMatrix in="shadowBlurOuter1" result="shadowMatrixOuter1" values="0 0 0 0 0.28627451 0 0 0 0 0.129411765 0 0 0 0 0.678431373 0 0 0 0.06 0"/>
            <feOffset dy="4" in="SourceAlpha" result="shadowOffsetOuter2"/>
            <feGaussianBlur in="shadowOffsetOuter2" result="shadowBlurOuter2" stdDeviation="4"/>
            <feColorMatrix in="shadowBlurOuter2" result="shadowMatrixOuter2" values="0 0 0 0 0.137254902 0 0 0 0 0.137254902 0 0 0 0 0.141176471 0 0 0 0.04 0"/>
            <feMerge>
                <feMergeNode in="shadowMatrixOuter1"/>
                <feMergeNode in="shadowMatrixOuter2"/>
            </feMerge>
        </filter>
        <circle id="o" cx="90" cy="90" r="90"/>
        <filter id="n" width="115.6%" height="115.6%" x="-7.8%" y="-5.6%" filterUnits="objectBoundingBox">
            <feOffset dy="1" in="SourceAlpha" result="shadowOffsetOuter1"/>
            <feGaussianBlur in="shadowOffsetOuter1" result="shadowBlurOuter1" stdDeviation="2"/>
            <feColorMatrix in="shadowBlurOuter1" result="shadowMatrixOuter1" values="0 0 0 0 0.28627451 0 0 0 0 0.129411765 0 0 0 0 0.678431373 0 0 0 0.06 0"/>
            <feOffset dy="4" in="SourceAlpha" result="shadowOffsetOuter2"/>
            <feGaussianBlur in="shadowOffsetOuter2" result="shadowBlurOuter2" stdDeviation="4"/>
            <feColorMatrix in="shadowBlurOuter2" result="shadowMatrixOuter2" values="0 0 0 0 0.137254902 0 0 0 0 0.137254902 0 0 0 0 0.141176471 0 0 0 0.04 0"/>
            <feMerge>
                <feMergeNode in="shadowMatrixOuter1"/>
                <feMergeNode in="shadowMatrixOuter2"/>
            </feMerge>
        </filter>
        <linearGradient id="p" x1="50%" x2="50%" y1="-406.012%" y2="81.715%">
            <stop offset="0%" stop-color="#343945"/>
            <stop offset="100%" stop-color="#343945" stop-opacity="0"/>
        </linearGradient>
        <circle id="r" cx="50.5" cy="50.5" r="50.5"/>
        <filter id="q" width="127.7%" height="127.7%" x="-13.9%" y="-9.9%" filterUnits="objectBoundingBox">
            <feOffset dy="1" in="SourceAlpha" result="shadowOffsetOuter1"/>
            <feGaussianBlur in="shadowOffsetOuter1" result="shadowBlurOuter1" stdDeviation="2"/>
            <feColorMatrix in="shadowBlurOuter1" result="shadowMatrixOuter1" values="0 0 0 0 0.28627451 0 0 0 0 0.129411765 0 0 0 0 0.678431373 0 0 0 0.06 0"/>
            <feOffset dy="4" in="SourceAlpha" result="shadowOffsetOuter2"/>
            <feGaussianBlur in="shadowOffsetOuter2" result="shadowBlurOuter2" stdDeviation="4"/>
            <feColorMatrix in="shadowBlurOuter2" result="shadowMatrixOuter2" values="0 0 0 0 0.137254902 0 0 0 0 0.137254902 0 0 0 0 0.141176471 0 0 0 0.04 0"/>
            <feMerge>
                <feMergeNode in="shadowMatrixOuter1"/>
                <feMergeNode in="shadowMatrixOuter2"/>
            </feMerge>
        </filter>
    </defs>
    <g fill="none" fill-rule="evenodd">
        <path fill="url(#a)" fill-rule="nonzero" d="M300 36l200 284H100z" transform="matrix(1 0 0 -1 -40 360)"/>
        <path fill="url(#b)" fill-rule="nonzero" d="M300 36l130 284H170z" transform="matrix(1 0 0 -1 -40 360)"/>
        <path fill="url(#c)" fill-rule="nonzero" d="M300 36l300 284H0z" transform="matrix(1 0 0 -1 -40 360)"/>
        <g transform="translate(8 35)">
            <use fill="#000" filter="url(#d)" xlink:href="#e"/>
            <use fill="#FFF" xlink:href="#e"/>
        </g>
        <path fill="#343945" d="M47.664 91.336l-3.691 2.187c-.69-1.197-1.348-1.979-1.973-2.343-.651-.417-1.49-.625-2.52-.625-1.263 0-2.31.358-3.144 1.074-.833.703-1.25 1.588-1.25 2.656 0 1.472 1.094 2.656 3.281 3.555l3.008 1.23c2.448.99 4.238 2.198 5.371 3.623 1.133 1.426 1.7 3.174 1.7 5.245 0 2.773-.925 5.065-2.774 6.874-1.862 1.823-4.173 2.735-6.934 2.735-2.617 0-4.778-.775-6.484-2.324-1.68-1.55-2.728-3.73-3.145-6.543l4.61-1.016c.208 1.77.573 2.995 1.093 3.672.938 1.302 2.305 1.953 4.102 1.953 1.42 0 2.598-.475 3.535-1.426.938-.95 1.406-2.155 1.406-3.613a5.07 5.07 0 0 0-.244-1.611 4.088 4.088 0 0 0-.761-1.348c-.345-.41-.791-.794-1.338-1.152-.547-.358-1.198-.7-1.953-1.026l-2.91-1.21c-4.128-1.745-6.192-4.298-6.192-7.657 0-2.266.866-4.16 2.598-5.683 1.731-1.537 3.886-2.305 6.465-2.305 3.476 0 6.19 1.693 8.144 5.078zm19.453 6.64h4.414V117h-4.414v-1.992c-1.81 1.693-3.756 2.539-5.84 2.539-2.63 0-4.804-.95-6.523-2.852-1.706-1.94-2.559-4.362-2.559-7.265 0-2.852.853-5.228 2.559-7.13 1.706-1.9 3.841-2.85 6.406-2.85 2.214 0 4.2.91 5.957 2.734v-2.207zm-10.43 9.454c0 1.823.489 3.307 1.465 4.453 1.003 1.159 2.266 1.738 3.79 1.738 1.627 0 2.942-.56 3.945-1.68 1.002-1.158 1.504-2.63 1.504-4.414 0-1.784-.502-3.255-1.504-4.414-1.003-1.133-2.305-1.699-3.907-1.699-1.51 0-2.773.573-3.789 1.719-1.002 1.159-1.504 2.59-1.504 4.297zm34.415-9.453h4.414V117h-4.414v-1.992c-1.81 1.693-3.757 2.539-5.84 2.539-2.63 0-4.805-.95-6.524-2.852-1.705-1.94-2.558-4.362-2.558-7.265 0-2.852.853-5.228 2.558-7.13 1.706-1.9 3.841-2.85 6.407-2.85 2.213 0 4.199.91 5.957 2.734v-2.207zm-10.43 9.453c0 1.823.488 3.307 1.465 4.453 1.002 1.159 2.265 1.738 3.789 1.738 1.627 0 2.942-.56 3.945-1.68 1.003-1.158 1.504-2.63 1.504-4.414 0-1.784-.501-3.255-1.504-4.414-1.003-1.133-2.305-1.699-3.906-1.699-1.51 0-2.774.573-3.79 1.719-1.002 1.159-1.503 2.59-1.503 4.297zm38.281-16.094l-3.691 2.187c-.69-1.197-1.348-1.979-1.973-2.343-.651-.417-1.49-.625-2.52-.625-1.262 0-2.31.358-3.144 1.074-.833.703-1.25 1.588-1.25 2.656 0 1.472 1.094 2.656 3.281 3.555l3.008 1.23c2.448.99 4.238 2.198 5.371 3.623 1.133 1.426 1.7 3.174 1.7 5.245 0 2.773-.925 5.065-2.774 6.874-1.862 1.823-4.173 2.735-6.934 2.735-2.617 0-4.778-.775-6.484-2.324-1.68-1.55-2.728-3.73-3.145-6.543l4.61-1.016c.208 1.77.573 2.995 1.094 3.672.937 1.302 2.304 1.953 4.101 1.953 1.42 0 2.598-.475 3.535-1.426.938-.95 1.407-2.155 1.407-3.613a5.07 5.07 0 0 0-.245-1.611 4.088 4.088 0 0 0-.761-1.348c-.345-.41-.791-.794-1.338-1.152-.547-.358-1.198-.7-1.953-1.026l-2.91-1.21c-4.128-1.745-6.192-4.298-6.192-7.657 0-2.266.866-4.16 2.598-5.683 1.732-1.537 3.886-2.305 6.465-2.305 3.476 0 6.191 1.693 8.144 5.078z"/>
        <g transform="translate(205 91)">
            <use fill="#000" filter="url(#f)" xlink:href="#g"/>
            <use fill="#FFF" xlink:href="#g"/>
        </g>
        <path fill="#343945" d="M232.176 128.192h4.896c.192-.6.336-1.2.456-1.824h-7.584v7.128c-.096 4.944-.888 8.928-2.376 11.928l-1.728-1.536c1.152-2.496 1.752-5.976 1.8-10.392v-9.36h19.824v2.232h-7.68c-.144.624-.288 1.248-.48 1.824h6.504v9.552h-5.4v5.472c0 1.44-.768 2.184-2.256 2.184h-2.424l-.504-2.232c.744.096 1.464.144 2.136.144.504 0 .768-.216.768-.648v-4.92h-5.952v-9.552zm11.424 7.488v-1.776h-9.216v1.776h9.216zm-9.216-3.72h9.216v-1.704h-9.216v1.704zm-.648 6.528l1.992.96a22.707 22.707 0 0 1-3.768 5.352l-1.896-1.344c1.44-1.392 2.664-3.048 3.672-4.968zm10.32-.024c1.584 1.944 2.832 3.648 3.696 5.112l-1.896 1.296c-.888-1.584-2.088-3.336-3.624-5.256l1.824-1.152zM255 129.752c-.96 2.16-2.16 3.96-3.624 5.4l-1.488-1.896c2.16-2.28 3.624-5.352 4.392-9.216l2.328.408a41.396 41.396 0 0 1-.792 3.096h4.464v-4.032h2.28v4.032h7.704v2.208h-7.704v4.968h7.224v2.208h-7.224v5.472h9.24v2.256h-21.288V142.4h9.768v-5.472h-6.864v-2.208h6.864v-4.968H255z"/>
        <g transform="translate(130 183)">
            <use fill="#000" filter="url(#h)" xlink:href="#i"/>
            <use fill="#FFF" xlink:href="#i"/>
        </g>
        <path fill="#343945" d="M176.063 245.14h-10.329l-2.687 5.86h-3.922l11.938-25.64L182.577 251h-3.984l-2.531-5.86zm-1.485-3.421L171 233.516l-3.75 8.203h7.328zm14.656-.516V251h-3.64v-24.125h4.125c2.02 0 3.547.14 4.578.422a6.14 6.14 0 0 1 2.75 1.594c1.385 1.354 2.078 3.062 2.078 5.125 0 2.208-.74 3.958-2.219 5.25-1.479 1.291-3.474 1.937-5.984 1.937h-1.688zm0-3.375h1.36c3.344 0 5.015-1.286 5.015-3.86 0-2.489-1.724-3.734-5.172-3.734h-1.203v7.594zm17.282-10.953V251h-3.641v-24.125h3.64z"/>
        <g transform="translate(370 201)">
            <use fill="#000" filter="url(#j)" xlink:href="#k"/>
            <use fill="#FFF" xlink:href="#k"/>
        </g>
        <path fill="#343945" d="M391.825 230.414l4.587 11.494 4.651-11.494h2.74l-7.445 17.832-7.272-17.832h2.74zM405.285 247l3.491-17.832 5.694 12.89 5.897-12.89L423.504 247h-2.567l-1.601-10.012-4.91 10.775-4.769-10.785L407.874 247h-2.589z"/>
        <g>
            <g transform="translate(158 35)">
                <use fill="#000" filter="url(#l)" xlink:href="#m"/>
                <use fill="#FFF" xlink:href="#m"/>
            </g>
            <path fill="#343945" d="M182.49 79.902h7.155v-6.488h2.502V90h-2.502v-7.745h-7.155V90h-2.503V73.414h2.503v6.488zm22.698 5.436h-7.498c.065.86.344 1.543.838 2.052.494.501 1.128.752 1.902.752.601 0 1.099-.144 1.493-.43.387-.287.827-.816 1.321-1.59l2.041 1.139a8.12 8.12 0 0 1-.999 1.38c-.35.383-.727.698-1.128.945a4.523 4.523 0 0 1-1.3.543c-.465.114-.97.172-1.514.172-1.561 0-2.815-.502-3.76-1.504-.945-1.01-1.418-2.35-1.418-4.018 0-1.654.458-2.993 1.375-4.017.924-1.01 2.148-1.515 3.674-1.515 1.54 0 2.757.49 3.652 1.472.888.974 1.332 2.324 1.332 4.05l-.01.569zm-2.481-1.977c-.337-1.289-1.15-1.933-2.438-1.933-.294 0-.57.044-.828.134-.257.09-.492.218-.703.387-.211.168-.392.37-.543.607a2.82 2.82 0 0 0-.343.805h4.855zm7.541-11.505V90h-2.417V71.856h2.417zm3.062 7.681h2.417v.967c.465-.487.863-.816 1.192-.988.35-.18.791-.269 1.321-.269 1.182 0 2.116.516 2.804 1.547.76-1.031 1.787-1.547 3.083-1.547 2.356 0 3.534 1.429 3.534 4.286V90h-2.428v-5.812c0-1.002-.121-1.711-.365-2.126-.25-.423-.662-.634-1.235-.634-.666 0-1.151.25-1.456.752-.304.501-.456 1.307-.456 2.417V90h-2.428v-5.78c0-1.861-.537-2.792-1.611-2.792-.68 0-1.177.254-1.488.762-.312.509-.467 1.311-.467 2.407V90h-2.417V79.537z"/>
        </g>
        <g>
            <g transform="translate(273 4)">
                <use fill="#000" filter="url(#n)" xlink:href="#o"/>
                <use fill="#FFF" xlink:href="#o"/>
            </g>
            <path fill="#343945" d="M312.719 84.172v4.312c-2.104-1.76-4.281-2.64-6.531-2.64-2.48 0-4.568.89-6.266 2.672-1.708 1.77-2.563 3.937-2.563 6.5 0 2.53.855 4.666 2.563 6.406 1.708 1.74 3.802 2.61 6.281 2.61 1.281 0 2.37-.21 3.266-.626.5-.208 1.018-.49 1.554-.844a18.376 18.376 0 0 0 1.696-1.28v4.39c-2.084 1.177-4.271 1.766-6.563 1.766-3.448 0-6.39-1.204-8.828-3.61-2.427-2.427-3.64-5.354-3.64-8.781 0-3.073 1.015-5.813 3.046-8.219 2.5-2.948 5.735-4.422 9.704-4.422 2.166 0 4.26.589 6.28 1.766zm3.203 15.11c0-2.199.786-4.068 2.36-5.61 1.572-1.542 3.489-2.313 5.75-2.313 2.27 0 4.197.776 5.78 2.329 1.563 1.552 2.344 3.458 2.344 5.718 0 2.282-.786 4.193-2.36 5.735-1.582 1.53-3.525 2.296-5.827 2.296-2.282 0-4.193-.78-5.735-2.343-1.541-1.542-2.312-3.48-2.312-5.813zm3.594.062c0 1.52.406 2.724 1.218 3.61.834.895 1.933 1.343 3.297 1.343 1.375 0 2.474-.443 3.297-1.328.823-.886 1.235-2.068 1.235-3.547 0-1.48-.412-2.662-1.235-3.547-.833-.896-1.932-1.344-3.297-1.344-1.344 0-2.432.448-3.265 1.344-.834.896-1.25 2.052-1.25 3.469zm16.359-7.563h3.531v1.406c1.23-1.218 2.615-1.828 4.156-1.828 1.771 0 3.152.558 4.141 1.672.854.948 1.281 2.495 1.281 4.64V107h-3.53v-8.5c0-1.5-.21-2.536-.626-3.11-.406-.583-1.146-.874-2.219-.874-1.166 0-1.994.385-2.484 1.156-.48.76-.719 2.088-.719 3.984V107h-3.531V91.781zm21.172 3.281V107h-3.516V95.062h-1.5v-3.28h1.5v-5.579h3.516v5.578h2.734v3.281h-2.734zm16.344-3.28h3.53V107h-3.53v-1.594c-1.448 1.354-3.006 2.031-4.672 2.031-2.104 0-3.844-.76-5.219-2.28-1.365-1.553-2.047-3.49-2.047-5.813 0-2.282.682-4.183 2.047-5.703 1.365-1.521 3.073-2.282 5.125-2.282 1.77 0 3.36.73 4.766 2.188V91.78zm-8.344 7.562c0 1.458.39 2.646 1.172 3.562.802.927 1.812 1.39 3.031 1.39 1.302 0 2.354-.447 3.156-1.343.802-.927 1.203-2.104 1.203-3.531s-.4-2.604-1.203-3.531c-.802-.907-1.843-1.36-3.125-1.36-1.208 0-2.218.459-3.031 1.375-.802.927-1.203 2.073-1.203 3.438zm19.828-7.563V107h-3.516V91.781h3.516zm-4.047-6.328c0-.614.224-1.146.672-1.594a2.196 2.196 0 0 1 1.61-.671c.635 0 1.176.223 1.624.671.448.438.672.974.672 1.61 0 .635-.224 1.177-.672 1.625a2.163 2.163 0 0 1-1.609.672 2.214 2.214 0 0 1-1.625-.672 2.232 2.232 0 0 1-.672-1.64zm8.5 6.328h3.531v1.406c1.23-1.218 2.615-1.828 4.157-1.828 1.77 0 3.15.558 4.14 1.672.854.948 1.281 2.495 1.281 4.64V107h-3.53v-8.5c0-1.5-.21-2.536-.626-3.11-.406-.583-1.146-.874-2.219-.874-1.166 0-1.994.385-2.484 1.156-.479.76-.719 2.088-.719 3.984V107h-3.53V91.781zm31.406 8.438h-10.906c.094 1.25.5 2.245 1.219 2.984.719.73 1.64 1.094 2.765 1.094.876 0 1.6-.208 2.172-.625.563-.417 1.203-1.188 1.922-2.313l2.969 1.657a11.81 11.81 0 0 1-1.453 2.007 7.726 7.726 0 0 1-1.64 1.375 6.579 6.579 0 0 1-1.891.79 9.203 9.203 0 0 1-2.204.25c-2.27 0-4.093-.73-5.468-2.188-1.375-1.469-2.063-3.417-2.063-5.844 0-2.406.667-4.354 2-5.844 1.344-1.468 3.125-2.203 5.344-2.203 2.24 0 4.01.714 5.313 2.141 1.291 1.417 1.937 3.38 1.937 5.89l-.016.829zm-3.609-2.875c-.49-1.875-1.672-2.813-3.547-2.813-.427 0-.828.065-1.203.196-.375.13-.716.317-1.023.562-.308.245-.57.54-.79.883a4.103 4.103 0 0 0-.5 1.172h7.063zm7.453-5.563h3.516v1.36c.646-.677 1.218-1.141 1.719-1.391.51-.26 1.114-.39 1.812-.39.927 0 1.896.301 2.906.906l-1.61 3.218c-.666-.479-1.317-.718-1.952-.718-1.917 0-2.875 1.448-2.875 4.343V107h-3.516V91.781z"/>
        </g>
        <path fill="url(#p)" fill-rule="nonzero" d="M300 324l300 134H0z" transform="translate(-40 4)"/>
        <g>
            <g transform="translate(251 222)">
                <use fill="#000" filter="url(#q)" xlink:href="#r"/>
                <use fill="#FFF" xlink:href="#r"/>
            </g>
            <path fill="#343945" d="M273.299 269.451l-1.661.985c-.31-.54-.607-.891-.888-1.055-.293-.188-.67-.281-1.134-.281-.568 0-1.04.16-1.415.483a1.498 1.498 0 0 0-.562 1.195c0 .662.492 1.196 1.476 1.6l1.354.554c1.101.445 1.907.988 2.417 1.63.51.642.764 1.428.764 2.36 0 1.248-.416 2.28-1.248 3.094-.838.82-1.878 1.23-3.12 1.23-1.178 0-2.15-.349-2.918-1.046-.756-.697-1.227-1.679-1.415-2.944l2.074-.457c.094.797.258 1.347.493 1.652.422.586 1.037.88 1.845.88.639 0 1.17-.215 1.591-.643.422-.427.633-.97.633-1.625 0-.264-.037-.506-.11-.726a1.84 1.84 0 0 0-.343-.606 2.74 2.74 0 0 0-.602-.519 5.8 5.8 0 0 0-.879-.461l-1.31-.545c-1.857-.785-2.785-1.934-2.785-3.445 0-1.02.39-1.872 1.169-2.558.779-.691 1.749-1.037 2.909-1.037 1.564 0 2.786.762 3.665 2.285zm10.24 7.735h-6.136c.053.703.282 1.262.686 1.678.404.41.923.615 1.556.615.492 0 .899-.117 1.221-.351.317-.234.677-.668 1.081-1.3l1.67.93c-.258.44-.53.817-.817 1.13a4.346 4.346 0 0 1-.923.774 3.7 3.7 0 0 1-1.064.443c-.38.094-.793.141-1.239.141-1.277 0-2.303-.41-3.076-1.23-.773-.827-1.16-1.922-1.16-3.287 0-1.354.375-2.45 1.125-3.288.756-.826 1.758-1.239 3.006-1.239 1.26 0 2.256.402 2.988 1.204.727.797 1.09 1.902 1.09 3.314l-.009.466zm-2.031-1.618c-.276-1.054-.94-1.582-1.995-1.582-.24 0-.466.037-.677.11-.211.073-.403.179-.576.317-.173.137-.32.303-.444.496a2.308 2.308 0 0 0-.28.66h3.972zm4.192-3.129h1.978v.765c.363-.38.685-.641.967-.782.287-.147.626-.22 1.02-.22.52 0 1.065.17 1.634.51l-.905 1.81c-.375-.27-.742-.404-1.1-.404-1.077 0-1.616.815-1.616 2.444V281H285.7v-8.56zm7.796 0l2.215 4.808 2.206-4.808h2.224l-4.448 9.15-4.412-9.15h2.215zm15.776 4.747h-6.134c.052.703.28 1.262.685 1.678.405.41.923.615 1.556.615.492 0 .9-.117 1.222-.351.316-.234.676-.668 1.08-1.3l1.67.93c-.257.44-.53.817-.817 1.13a4.346 4.346 0 0 1-.923.774 3.7 3.7 0 0 1-1.063.443c-.381.094-.794.141-1.24.141-1.277 0-2.302-.41-3.076-1.23-.773-.827-1.16-1.922-1.16-3.287 0-1.354.375-2.45 1.125-3.288.756-.826 1.758-1.239 3.006-1.239 1.26 0 2.256.402 2.988 1.204.727.797 1.09 1.902 1.09 3.314l-.009.466zm-2.03-1.618c-.275-1.054-.94-1.582-1.995-1.582-.24 0-.466.037-.677.11-.21.073-.403.179-.575.317-.173.137-.321.303-.444.496a2.308 2.308 0 0 0-.281.66h3.972zm6.17-9.413V281h-1.977v-14.845h1.977zm10.3 11.03h-6.134c.053.704.281 1.263.686 1.68.404.41.923.614 1.555.614.493 0 .9-.117 1.222-.351.316-.234.677-.668 1.081-1.3l1.67.93c-.258.44-.53.817-.817 1.13a4.346 4.346 0 0 1-.923.774 3.7 3.7 0 0 1-1.064.443c-.38.094-.794.141-1.239.141-1.277 0-2.303-.41-3.076-1.23-.774-.827-1.16-1.922-1.16-3.287 0-1.354.375-2.45 1.125-3.288.756-.826 1.758-1.239 3.006-1.239 1.26 0 2.255.402 2.988 1.204.726.797 1.09 1.902 1.09 3.314l-.01.466zm-2.03-1.617c-.275-1.054-.94-1.582-1.994-1.582-.24 0-.466.037-.677.11-.211.073-.403.179-.576.317-.173.137-.32.303-.444.496a2.308 2.308 0 0 0-.281.66h3.973zm9.168-1.67l-1.635.87c-.258-.527-.577-.79-.958-.79a.659.659 0 0 0-.466.18.603.603 0 0 0-.193.461c0 .328.38.653 1.142.976 1.05.45 1.755.867 2.118 1.248.364.38.545.893.545 1.538 0 .826-.304 1.517-.914 2.074-.592.527-1.306.791-2.144.791-1.436 0-2.452-.7-3.05-2.1l1.687-.783c.235.41.414.671.537.783.24.222.527.333.86.333.669 0 1.003-.304 1.003-.914 0-.351-.258-.68-.774-.984-.199-.1-.398-.196-.597-.29-.2-.094-.402-.19-.607-.29-.574-.281-.978-.563-1.213-.844-.298-.357-.448-.817-.448-1.38 0-.744.255-1.359.765-1.845.521-.487 1.154-.73 1.898-.73 1.096 0 1.91.566 2.444 1.696zm7.303 0l-1.634.87c-.258-.527-.578-.79-.958-.79a.659.659 0 0 0-.466.18.603.603 0 0 0-.194.461c0 .328.381.653 1.143.976 1.049.45 1.755.867 2.118 1.248.363.38.545.893.545 1.538 0 .826-.305 1.517-.914 2.074-.592.527-1.307.791-2.145.791-1.435 0-2.452-.7-3.05-2.1l1.688-.783c.235.41.413.671.536.783.24.222.528.333.862.333.668 0 1.002-.304 1.002-.914 0-.351-.258-.68-.774-.984-.2-.1-.398-.196-.598-.29-.199-.094-.4-.19-.606-.29-.574-.281-.979-.563-1.213-.844-.299-.357-.448-.817-.448-1.38 0-.744.255-1.359.765-1.845.521-.487 1.154-.73 1.898-.73 1.096 0 1.91.566 2.443 1.696z"/>
        </g>
    </g>
</svg>
