<svg xmlns="http://www.w3.org/2000/svg" width="145" height="33" viewBox="0 0 145 33">
    <g fill="#7749AC" fill-rule="evenodd">
        <path d="M7.904 28.545C3.54 28.545 0 24.585 0 19.7c0-4.885 3.539-8.845 7.904-8.845 4.366 0 7.905 3.96 7.905 8.845 0 4.885-3.54 8.845-7.905 8.845zm0-3.066c2.835 0 5.133-2.576 5.133-5.754 0-3.178-2.298-5.754-5.133-5.754-2.834 0-5.132 2.576-5.132 5.754 0 3.178 2.298 5.754 5.132 5.754zM20.942 10.855h3.862c2.8 0 5.069 2.27 5.069 5.069v.617c0 2.8-2.27 5.069-5.07 5.069h-3.861v6.935h-2.926v-17.69h2.926zm-.008 2.915v4.925h3.5a2.462 2.462 0 0 0 0-4.925h-3.5zM34.287 18.212h8.197v2.926h-8.197v4.512h8.197v2.925H31.48v-.03h-.118v-17.69h.118v-.03h11.005v2.925h-8.197v4.462zM55.793 19.89l-8.212-4.242v12.897h-2.926V11.936l.119.057V10.76l11.019 5.693v-5.597h2.926v17.69h-2.926V19.89zM105.016 13.75v14.795h-2.926V13.75h-4.844v-2.926h12.614v2.926h-4.844zM117.895 21.61h-3.743v6.935h-2.925v-17.69h6.839c2.8 0 5.069 2.27 5.069 5.069v.617a5.067 5.067 0 0 1-2.521 4.383l4.009 7.62h-3.08l-3.648-6.934zm-3.743-7.84v4.925h3.5a2.462 2.462 0 0 0 0-4.925h-3.5zM125.598 10.855h2.926v17.69h-2.926zM137.509 17.345l4.314-6.49h3.13l-5.879 8.845 5.88 8.845h-3.131l-4.314-6.49-4.314 6.49h-3.131l5.88-8.845-5.88-8.845h3.13l4.315 6.49zM73.09 8.658l4.945-2.376V0L73.09 2.376z"/>
        <path d="M69.415 16.501v16.55l-6.282-3.155V7.186l14.885 7.187v6.282L69.415 16.5z" opacity=".75"/>
        <path d="M92.836 29.865V15.75l-6.282 3.258v14.013z"/>
        <path d="M78.018 0l14.885 7.186v6.282L78.018 6.282z" opacity=".75"/>
        <path d="M78.018 20.655l14.885-7.187V7.186l-14.885 7.187z"/>
    </g>
</svg>
