<?xml version="1.0" encoding="UTF-8"?>
<svg width="29px" height="32px" viewBox="0 0 29 32" version="1.1" xmlns="http://www.w3.org/2000/svg" xmlns:xlink="http://www.w3.org/1999/xlink">
    <!-- Generator: Sketch 48.1 (47250) - http://www.bohemiancoding.com/sketch -->
    <title>logo-2</title>
    <desc>Created with Sketch.</desc>
    <defs></defs>
    <g id="Browse-Copy" stroke="none" stroke-width="1" fill="none" fill-rule="evenodd" transform="translate(-156.000000, -7.000000)">
        <g id="logo-2" transform="translate(156.000000, 7.000000)" fill="#FFFFFF">
            <g id="Group-4">
                <polygon id="Rectangle-2-Copy-5" transform="translate(12.029050, 4.189513) scale(1, -1) translate(-12.029050, -4.189513) " points="9.63631173 -3.63797881e-12 14.4217875 2.29981083 14.4217875 8.37902558 9.63631173 6.07921476"></polygon>
                <path d="M6.07921476,15.9688755 L6.07921476,31.9852343 L4.79616347e-14,28.9315614 L1.72547439e-15,13.0338364 L0,6.95462168 L14.4047959,13.9092434 L14.4047959,19.9884581 L6.07921476,15.9688755 Z" id="Combined-Shape" opacity="0.699999988"></path>
                <polygon id="Rectangle-2-Copy-3" transform="translate(25.705110, 23.598955) scale(1, -1) rotate(-270.000000) translate(-25.705110, -23.598955) " points="20.4020862 20.5593476 34.0618065 20.5593476 30.9087901 26.6385623 17.3484133 26.6385623"></polygon>
                <polygon id="Rectangle-2-Copy-4" opacity="0.699999988" points="14.4047959 0 28.8095918 6.95462168 28.8095918 13.0338364 14.4047959 6.07921476"></polygon>
                <polygon id="Rectangle-2-Copy" transform="translate(21.607194, 13.471540) scale(1, -1) translate(-21.607194, -13.471540) " points="14.4047959 6.95462168 28.8095918 13.9092434 28.8095918 19.9884581 14.4047959 13.0338364"></polygon>
            </g>
        </g>
    </g>
</svg>