<?xml version="1.0" encoding="UTF-8"?>
<svg width="284px" height="40px" viewBox="0 0 284 40" version="1.1" xmlns="http://www.w3.org/2000/svg" xmlns:xlink="http://www.w3.org/1999/xlink">
    <!-- Generator: Sketch 50.2 (55047) - http://www.bohemiancoding.com/sketch -->
    <title>Group</title>
    <desc>Created with Sketch.</desc>
    <defs></defs>
    <g id="Sessions" stroke="none" stroke-width="1" fill="none" fill-rule="evenodd">
        <g id="Login" transform="translate(-578.000000, -249.000000)">
            <g id="Group-6" transform="translate(515.000000, 249.000000)">
                <g id="Group" transform="translate(63.000000, 0.000000)">
                    <path d="M268.009009,14.8466486 L277.27513,0.64516129 L284,0.64516129 L271.371444,20 L284,39.3548387 L277.27513,39.3548387 L268.009009,25.1533514 L258.742888,39.3548387 L252.018018,39.3548387 L264.646574,20 L252.018018,0.64516129 L258.742888,0.64516129 L268.009009,14.8466486 Z M224.941118,23.8592232 C224.76643,23.8670251 224.590737,23.8709677 224.414124,23.8709677 L216.837838,23.8709677 L216.837838,39.3548387 L210.441441,39.3548387 L210.441441,0.64516129 L216.837838,0.64516129 L224.414124,0.64516129 C230.827753,0.64516129 236.027027,5.84443516 236.027027,12.2580645 C236.027027,16.4070167 233.851263,20.0477919 230.57849,22.1016343 L239.775264,39.4191547 L233.204494,39.4191547 L224.941118,23.8592232 Z M197.009009,0.647444794 L207.681779,0.647444794 L207.681779,7.04384119 L197.009009,7.04384119 L197.009009,39.3548387 L190.612613,39.3548387 L190.612613,7.04384119 L179.939843,7.04384119 L179.939843,0.647444794 L190.612613,0.647444794 L197.009009,0.64516129 Z M216.837838,7.09707344 L216.837838,18.0642169 L224.147059,18.0642169 C227.175552,18.0642169 229.630631,15.6091382 229.630631,12.5806452 C229.630631,9.55215212 227.175552,7.09707344 224.147059,7.09707344 L216.837838,7.09707344 Z M241.144144,0.64516129 L247.540541,0.64516129 L247.540541,39.3548387 L241.144144,39.3548387 L241.144144,0.64516129 Z" id="Combined-Shape" fill="#FFFFFF"></path>
                    <path d="M17.2702703,35.483871 C24.5933695,35.483871 30.7027027,28.6371247 30.7027027,20 C30.7027027,11.3628753 24.5933695,4.51612903 17.2702703,4.51612903 C9.947171,4.51612903 3.83783784,11.3628753 3.83783784,20 C3.83783784,28.6371247 9.947171,35.483871 17.2702703,35.483871 Z M17.2702703,39.3548387 C7.73216338,39.3548387 0,30.6893823 0,20 C0,9.31061775 7.73216338,0.64516129 17.2702703,0.64516129 C26.8083772,0.64516129 34.5405405,9.31061775 34.5405405,20 C34.5405405,30.6893823 26.8083772,39.3548387 17.2702703,39.3548387 Z" id="Oval-2" fill="#FFFFFF" fill-rule="nonzero"></path>
                    <path d="M44.7747748,0.64516129 L55.6486486,0.64516129 C61.3008601,0.64516129 65.8828829,5.26673807 65.8828829,10.9677419 L65.8828829,13.5483871 C65.8828829,19.249391 61.3008601,23.8709677 55.6486486,23.8709677 L44.7747748,23.8709677 L44.7747748,39.3548387 L40.9369369,39.3548387 L40.9369369,0.64516129 L44.7747748,0.64516129 Z M44.7747748,4.51612903 L44.7747748,20 L55.6486486,20 C59.1812808,20 62.045045,17.1115145 62.045045,13.5483871 L62.045045,10.9677419 C62.045045,7.40461452 59.1812808,4.51612903 55.6486486,4.51612903 L44.7747748,4.51612903 Z" id="Combined-Shape" fill="#FFFFFF"></path>
                    <path d="M147.117117,0.64516129 L156.072072,0.64516129 C161.724284,0.64516129 166.306306,5.26673807 166.306306,10.9677419 L166.306306,14.1935484 C166.306306,19.8945523 161.724284,24.516129 156.072072,24.516129 L147.117117,24.516129 L147.117117,39.3548387 L140.720721,39.3548387 L140.720721,0.64516129 L147.117117,0.64516129 Z M147.117117,7.09677419 L147.117117,18.0645161 L156.072072,18.0645161 C158.191651,18.0645161 159.90991,16.3314248 159.90991,14.1935484 L159.90991,10.9677419 C159.90991,8.82986548 158.191651,7.09677419 156.072072,7.09677419 L147.117117,7.09677419 Z" id="Combined-Shape" fill="#FFFFFF"></path>
                    <polygon id="Combined-Shape" fill="#FFFFFF" points="95.3063063 4.51612903 75.4774775 4.51612903 75.4774775 17.4193548 95.3063063 17.4193548 95.3063063 21.2903226 75.4774775 21.2903226 75.4774775 35.483871 95.3063063 35.483871 95.3063063 39.3548387 71.6396396 39.3548387 71.6396396 0.64516129 75.4774775 0.64516129 95.3063063 0.64516129"></polygon>
                    <polygon id="Combined-Shape" fill="#FFFFFF" points="128.567568 13.3790137 128.567568 0.64516129 132.405405 0.64516129 132.405405 39.3548387 128.567568 39.3548387 128.567568 17.7235024 106.81982 6.5468151 106.81982 39.3548387 102.981982 39.3548387 102.981982 0.64516129 106.81982 0.64516129 106.81982 2.20232644"></polygon>
                    <polygon id="Rectangle-4-Copy-8" fill="#FFFFFF" points="170.144144 0.64516129 176.540541 0.64516129 176.540541 26.4516129 170.144144 23.2258065"></polygon>
                    <polygon id="Rectangle-4-Copy-15" fill="#F7B236" transform="translate(173.342342, 34.838710) rotate(-180.000000) translate(-173.342342, -34.838710) " points="170.144144 30.3225806 176.540541 30.3225806 176.540541 39.3548387 170.144144 36.2903226"></polygon>
                </g>
            </g>
        </g>
    </g>
</svg>