<?xml version="1.0" encoding="UTF-8"?>
<svg width="116px" height="16px" viewBox="0 0 116 16" version="1.1" xmlns="http://www.w3.org/2000/svg" xmlns:xlink="http://www.w3.org/1999/xlink">
    <!-- Generator: Sketch 50.2 (55047) - http://www.bohemiancoding.com/sketch -->
    <title>Group</title>
    <desc>Created with Sketch.</desc>
    <defs></defs>
    <g id="Symbols" stroke="none" stroke-width="1" fill="none" fill-rule="evenodd">
        <g id="Footer" transform="translate(-140.000000, -24.000000)">
            <g id="logo" transform="translate(140.000000, 24.000000)">
                <g id="Group">
                    <path d="M108.713514,5.93865944 L112.472165,0.258064516 L115.2,0.258064516 L110.077431,8 L115.2,15.7419355 L112.472165,15.7419355 L108.713514,10.0613406 L104.954862,15.7419355 L102.227027,15.7419355 L107.349596,8 L102.227027,0.258064516 L104.954862,0.258064516 L108.713514,5.93865944 Z M91.2449785,9.54602376 C91.1953049,9.54759537 91.1454345,9.5483871 91.0953793,9.5483871 L87.9567568,9.5483871 L87.9567568,15.7419355 L85.3621622,15.7419355 L85.3621622,0.258064516 L87.9567568,0.258064516 L91.0953793,0.258064516 C93.660831,0.258064516 95.7405405,2.33777407 95.7405405,4.90322581 C95.7405405,6.57249834 94.8600403,8.03611903 93.538146,8.85498161 L97.2609523,15.7676619 L94.5956257,15.7676619 L91.2449785,9.54602376 Z M79.9135135,2.83555449 L79.9135135,15.7419355 L77.3189189,15.7419355 L77.3189189,2.83555449 L73.0678291,2.83555449 L73.0678291,0.2409599 L84.1646033,0.2409599 L84.1646033,2.83555449 L79.9135135,2.83555449 Z M87.9567568,2.83882938 L87.9567568,7.22568675 L90.9525173,7.22568675 C92.1639145,7.22568675 93.1459459,6.24365528 93.1459459,5.03225806 C93.1459459,3.82086085 92.1639145,2.83882938 90.9525173,2.83882938 L87.9567568,2.83882938 Z M97.8162162,0.258064516 L100.410811,0.258064516 L100.410811,15.7419355 L97.8162162,15.7419355 L97.8162162,0.258064516 Z" id="Combined-Shape" fill="#A8A0B1"></path>
                    <path d="M7.00540541,14.1935484 C9.97590201,14.1935484 12.4540541,11.4548499 12.4540541,8 C12.4540541,4.54515011 9.97590201,1.80645161 7.00540541,1.80645161 C4.0349088,1.80645161 1.55675676,4.54515011 1.55675676,8 C1.55675676,11.4548499 4.0349088,14.1935484 7.00540541,14.1935484 Z M7.00540541,15.7419355 C3.13642683,15.7419355 0,12.2757529 0,8 C0,3.7242471 3.13642683,0.258064516 7.00540541,0.258064516 C10.874384,0.258064516 14.0108108,3.7242471 14.0108108,8 C14.0108108,12.2757529 10.874384,15.7419355 7.00540541,15.7419355 Z" id="Oval-2" fill="#A8A0B1" fill-rule="nonzero"></path>
                    <path d="M18.1621622,0.258064516 L22.572973,0.258064516 C24.865701,0.258064516 26.7243243,2.10669523 26.7243243,4.38709677 L26.7243243,5.41935484 C26.7243243,7.69975639 24.865701,9.5483871 22.572973,9.5483871 L18.1621622,9.5483871 L18.1621622,15.7419355 L16.6054054,15.7419355 L16.6054054,0.258064516 L18.1621622,0.258064516 Z M18.1621622,1.80645161 L18.1621622,8 L22.572973,8 C24.005928,8 25.1675676,6.84460581 25.1675676,5.41935484 L25.1675676,4.38709677 C25.1675676,2.96184581 24.005928,1.80645161 22.572973,1.80645161 L18.1621622,1.80645161 Z" id="Combined-Shape" fill="#A8A0B1"></path>
                    <path d="M59.6756757,0.258064516 L63.3081081,0.258064516 C65.6008362,0.258064516 67.4594595,2.10669523 67.4594595,4.38709677 L67.4594595,5.67741935 C67.4594595,7.9578209 65.6008362,9.80645161 63.3081081,9.80645161 L59.6756757,9.80645161 L59.6756757,15.7419355 L57.0810811,15.7419355 L57.0810811,0.258064516 L59.6756757,0.258064516 Z M59.6756757,2.83870968 L59.6756757,7.22580645 L63.3081081,7.22580645 C64.1678811,7.22580645 64.8648649,6.53256994 64.8648649,5.67741935 L64.8648649,4.38709677 C64.8648649,3.53194619 64.1678811,2.83870968 63.3081081,2.83870968 L59.6756757,2.83870968 Z" id="Combined-Shape" fill="#A8A0B1"></path>
                    <polygon id="Combined-Shape" fill="#A8A0B1" points="38.6594595 1.80645161 30.6162162 1.80645161 30.6162162 6.96774194 38.6594595 6.96774194 38.6594595 8.51612903 30.6162162 8.51612903 30.6162162 14.1935484 38.6594595 14.1935484 38.6594595 15.7419355 29.0594595 15.7419355 29.0594595 0.258064516 30.6162162 0.258064516 38.6594595 0.258064516"></polygon>
                    <polygon id="Combined-Shape" fill="#A8A0B1" points="52.1513514 5.35160549 52.1513514 0.258064516 53.7081081 0.258064516 53.7081081 15.7419355 52.1513514 15.7419355 52.1513514 7.08940095 43.3297297 2.61872604 43.3297297 15.7419355 41.772973 15.7419355 41.772973 0.258064516 43.3297297 0.258064516 43.3297297 0.880930575"></polygon>
                    <polygon id="Rectangle-4-Copy-8" fill="#A8A0B1" points="69.0162162 0.258064516 71.6108108 0.258064516 71.6108108 10.5806452 69.0162162 9.29032258"></polygon>
                    <polygon id="Rectangle-4-Copy-15" fill="#F7B236" transform="translate(70.313514, 13.935484) rotate(-180.000000) translate(-70.313514, -13.935484) " points="69.0162162 12.1290323 71.6108108 12.1290323 71.6108108 15.7419355 69.0162162 14.516129"></polygon>
                </g>
            </g>
        </g>
    </g>
</svg>