<svg xmlns="http://www.w3.org/2000/svg" width="262" height="60" viewBox="0 0 262 60">
    <g fill="#FFF" fill-rule="evenodd">
        <path d="M14.282 51.213C6.394 51.213 0 44.108 0 35.343c0-8.763 6.394-15.868 14.282-15.868s14.283 7.105 14.283 15.869-6.395 15.869-14.283 15.869zm0-5.5c5.123 0 9.275-4.622 9.275-10.324s-4.152-10.324-9.275-10.324c-5.122 0-9.274 4.622-9.274 10.324s4.152 10.324 9.274 10.324zM37.84 19.475h7.013a9.124 9.124 0 0 1 9.124 9.124v1.047a9.124 9.124 0 0 1-9.124 9.124h-7.014v12.443h-5.286V19.475h5.286zm-.015 5.23v8.836h6.355a4.418 4.418 0 0 0 0-8.836h-6.355zM61.953 32.656h14.741v5.286H61.953V46h14.741v5.286H56.95v-.073h-.283V19.475h.283v-.073h19.745v5.286H61.953v7.968zM100.812 35.78l-14.839-7.72v23.153h-5.286V21.415l.286.136v-2.307l19.839 10.322v-10.09h5.286v31.737h-5.286V35.78zM189.753 24.688v26.525h-5.286V24.688h-8.673v-5.286h22.631v5.286h-8.672zM213.024 38.77h-6.763v12.443h-5.286V19.475h12.392a9.124 9.124 0 0 1 9.124 9.124v1.047a9.12 9.12 0 0 1-4.552 7.898l7.242 13.669h-5.565l-6.592-12.443zm-6.763-14.065v8.836h6.354a4.418 4.418 0 1 0 0-8.836h-6.354zM226.943 19.475h5.286v31.737h-5.286zM248.464 31.119l7.795-11.644h5.658l-10.624 15.869 10.624 15.869h-5.658l-7.795-11.644-7.795 11.644h-5.657l10.624-15.87-10.624-15.868h5.657l7.795 11.644zM132.067 15.534l8.935-4.264V0l-8.935 4.264z"/>
        <path d="M125.385 29.586v29.841l-11.27-5.701V24.183l-.04-.02v-11.27l26.895 12.894v11.27l-15.585-7.471z" opacity=".75"/>
        <path d="M167.704 53.652V28.148l-11.27 5.887v25.319z"/>
        <path d="M140.97 0l26.895 12.893v11.27L140.97 11.27z" opacity=".75"/>
        <path d="M140.97 37.057l26.895-12.893v-11.27L140.97 25.786z"/>
    </g>
</svg>
